<?xml version="1.0" encoding="utf-8"?>
<!-- Generator: Adobe Illustrator 17.0.0, SVG Export Plug-In . SVG Version: 6.00 Build 0)  -->
<!DOCTYPE svg PUBLIC "-//W3C//DTD SVG 1.1//EN" "http://www.w3.org/Graphics/SVG/1.1/DTD/svg11.dtd">
<svg version="1.1" id="Camada_1" xmlns="http://www.w3.org/2000/svg" xmlns:xlink="http://www.w3.org/1999/xlink" x="0px" y="0px"
	 width="254.75px" height="117.25px" viewBox="0 0 254.75 117.25" enable-background="new 0 0 254.75 117.25" xml:space="preserve">
<g>
	<path fill-rule="evenodd" clip-rule="evenodd" fill="#FFFFFF" stroke="#FFFFFF" stroke-miterlimit="10" d="M84.784,62.696
		c-4.565-18.004-20.619-31.404-39.56-31.323C22.873,31.47,4.628,50.335,4.731,73.271c0.103,23.043,18.51,41.7,40.861,41.6
		c11.682-0.051,22.148-5.171,29.545-13.38c0.845-1.165,0.727-2.739-0.467-3.966l-7.751-6.734l-0.915-0.753
		c-1.64-1.222-3.234-1.092-4.584,0.132c-0.12,0.121-0.226,0.236-0.338,0.363v0.052h-0.066c-4.175,3.981-9.606,6.464-15.732,6.491
		C32.569,97.136,22.09,86.502,22.033,73.425C21.975,60.3,32.363,49.637,45.076,49.578c4.251-0.019,8.111,1.129,11.586,3.154
		c0.228,0.179,0.459,0.294,0.619,0.405c1.995,1.281,3.65,2.911,1.271,4.6l-0.741,0.473L37.572,72.891l-1.237,0.883
		c-1.701,1.171-0.338,3.039,2.277,2.557l1.24-0.236l41.382-7.827c0.506-0.057,1.018-0.24,1.472-0.537
		c0.506-0.344,0.899-0.705,1.239-1.116c0.398-0.522,0.726-1.168,0.903-1.921C84.953,63.986,84.84,63.407,84.784,62.696z"/>
	<path fill-rule="evenodd" clip-rule="evenodd" fill="#FFFFFF" stroke="#FFFFFF" stroke-miterlimit="10" d="M209.147,30.65
		c-0.061,0-0.118,0-0.182,0c-22.348,0.213-40.294,19.028-40.194,41.896c0.105,22.932,18.222,41.582,40.569,41.607
		c0.057-0.005,0.115-0.005,0.176-0.005c22.405-0.101,40.587-18.917,40.486-41.958C249.897,49.249,231.547,30.55,209.147,30.65z
		 M209.262,96.354c-12.759,0.054-23.19-10.576-23.246-23.652c-0.054-13.135,10.271-23.791,23.038-23.846
		c12.706,0,23.183,10.566,23.242,23.642C232.352,85.571,221.977,96.301,209.262,96.354z"/>
	<path fill-rule="evenodd" clip-rule="evenodd" fill="#FFFFFF" stroke="#FFFFFF" stroke-miterlimit="10" d="M71.566,24.6
		l14.456-2.569c4.477-0.781,6.064-0.901,9.085,3.458c9.647,13.786,19.418,28.803,27.134,43.647c0.516,1.11,1.313,2.322,2.118,3.546
		c1.544,2.209,2.911,3.839,5.357,4.357c1.24,0.224,2.378,0.098,3.336-0.43c1.526-0.766,2.491-2.224,3.271-3.742
		c0.344-0.646,0.566-1.235,0.905-1.814c0.901-1.816,1.691-3.63,2.417-5.497c3.424-7.957,7.017-15.962,10.73-23.801
		c4.661-10.119,9.945-20.052,16.034-29.476c2.424-3.632,4.174-4.682,8.03-5.465l20.633-3.937c3.564-0.716,4.589-0.017,5.103,0.734
		c0.631,1.05-0.037,2.626-3.375,6.027c-24,24.373-38.385,55.024-48.758,82.841c-1.124,2.862-2.069,5.785-3.19,8.646
		c-0.84,2.109-1.629,4.211-2.93,5.962c-0.79,0.996-1.635,1.882-2.66,2.528c-3.159,1.927-6.847,2.425-10.2,1.796
		c-2.207-0.402-4.594-1.384-6.42-3.127c-2.444-2.209-3.939-5.812-5.429-8.732c-6.285-11.867-12.583-24.332-20.463-36.606
		C89.096,51.011,80.6,39.971,71.082,29.742C67.832,26.314,68.103,25.381,71.566,24.6z"/>
</g>
</svg>
